HIERARCHY
ROOT ui
{
	 OFFSET 0 0 0
	 CHANNELS 3 XPosition YPosition Z Position
	 EndSite
	 {
	 OFFSET 0 -1 0
	 }
}
ROOT li
{
	 OFFSET 0 0 0
	 CHANNELS 3 XPosition YPosition Z Position
	 EndSite
	 {
	 OFFSET 0 -1 0
	 }
}
ROOT ul
{
	 OFFSET 0 0 0
	 CHANNELS 3 XPosition YPosition Z Position
	 EndSite
	 {
	 OFFSET 0 -1 0
	 }
}
ROOT ll
{
	 OFFSET 0 0 0
	 CHANNELS 3 XPosition YPosition Z Position
	 EndSite
	 {
	 OFFSET 0 -1 0
	 }
}
ROOT tt
{
	 OFFSET 0 0 0
	 CHANNELS 3 XPosition YPosition Z Position
	 EndSite
	 {
	 OFFSET 0 -1 0
	 }
}
ROOT tb
{
	 OFFSET 0 0 0
	 CHANNELS 3 XPosition YPosition Z Position
	 EndSite
	 {
	 OFFSET 0 -1 0
	 }
}
ROOT td
{
	 OFFSET 0 0 0
	 CHANNELS 3 XPosition YPosition Z Position
	 EndSite
	 {
	 OFFSET 0 -1 0
	 }
}
ROOT v
{
	 OFFSET 0 0 0
	 CHANNELS 3 XPosition YPosition Z Position
	 EndSite
	 {
	 OFFSET 0 -1 0
	 }
}
ROOT bn
{
	 OFFSET 0 0 0
	 CHANNELS 3 XPosition YPosition Z Position
	 EndSite
	 {
	 OFFSET 0 -1 0
	 }
}
MOTION
Frames: 10
Frame Time: 0.002
0.002170604944229126	2.0480799674987794E-4	0		0.49653753662109373	-2.415895751953125	0		-0.9972107543945312	0.08033512878417969	0		-0.731593017578125	-2.549912109375	0		1.4857696533203124	-0.7928870849609375	0		3.2158525390625	-0.1749368896484375	0		4.53140185546875	-0.015999099731445313	0		5.572279296875	0.1139085464477539	0		-0.11544247436523437	5.95035791015625	0		
0.0018305269479751587	-2.9570800065994264E-4	0		0.4962393798828125	-2.416387451171875	0		-0.99755224609375	0.07981726837158203	0		-0.655931884765625	-2.5560419921875	0		1.485443359375	-0.7933618774414063	0		3.252660400390625	-0.15768251037597655	0		4.536986328125	-0.025472900390625	0		5.58701025390625	0.12238265228271485	0		-0.13097456359863283	5.9389775390625	0		
0.0015054899454116821	-7.924939990043641E-4	0		0.4939403381347656	-2.418859375	0		-0.997878662109375	0.07930305480957031	0		-0.7321693725585937	-2.550934814453125	0		1.48210791015625	-0.7968084106445312	0		3.2043154296875	-0.1607338104248047	0		4.53073193359375	-0.016845794677734376	0		5.5716103515625	0.11310501861572266	0		-0.13239503479003906	5.93948681640625	0		
0.0011986490488052367	-0.0012807029485702515	0		0.4786672668457031	-2.420218017578125	0		-0.9822359008789062	0.07266866302490234	0		-0.7194734497070312	-2.55654052734375	0		1.4938143310546874	-0.7973682250976563	0		3.20401123046875	-0.16116725158691406	0		4.53635009765625	-0.02630817413330078	0		5.57622900390625	0.10367195129394531	0		-0.11573128509521484	5.9478583984375	0		
0.015016936302185058	0.011131185531616211	0		0.49139627075195313	-2.423789794921875	0		-0.9753944091796874	0.0881207504272461	0		-0.7136693725585938	-2.55107568359375	0		1.496573486328125	-0.7938428344726562	0		3.243734619140625	-0.1609120330810547	0		4.53205419921875	-0.027679458618164062	0		5.58100537109375	0.11124815368652344	0		-0.15017044067382812	5.94065625	0		
0.007696526050567627	0.003730873107910156	0		0.49724200439453126	-2.415287841796875	0		-0.9947075805664063	0.08180162048339844	0		-0.6449927368164062	-2.564098876953125	0		1.487338134765625	-0.792204345703125	0		3.211554443359375	-0.15106156921386718	0		4.5448681640625	-0.018174301147460936	0		5.58074755859375	0.11187761688232421	0		-0.11746343994140625	5.9479306640625	0		
0.00745348596572876	0.003294585943222046	0		0.46703497314453124	-2.415475830078125	0		-0.9949517211914063	0.08135081481933594	0		-0.7310913696289062	-2.55085400390625	0		1.48408251953125	-0.7955950317382813	0		3.191169677734375	-0.16929019165039064	0		4.52962353515625	-0.01842726135253906	0		5.5754306640625	0.10256250762939453	0		-0.11779256439208985	5.94749267578125	0		
1.8068499863147736E-4	-0.003062819957733154	0		0.5037530212402344	-2.427179931640625	0		-0.9992096557617187	0.07695587158203125	0		-0.733298095703125	-2.55326171875	0		1.4838682861328125	-0.795989013671875	0		3.213882080078125	-0.17784556579589844	0		4.54426806640625	-0.034902984619140626	0		5.576220703125	0.10421516418457032	0		-0.13417669677734376	5.9372060546875	0		
0.003993392944335938	-4.8492300510406496E-4	0		0.4585729064941406	-2.427203369140625	0		-1.0674276123046875	0.07609831237792969	0		-0.7205185546875	-2.558764404296875	0		1.4866907958984374	-0.7933849487304687	0		3.207729248046875	-0.17114842224121093	0		4.5211123046875	-0.028055862426757814	0		5.5749921875	0.10190144348144531	0		-0.11838092803955078	5.94668603515625	0		
0.01084603214263916	0.00609408712387085	0		0.498499267578125	-2.414883544921875	0		-0.9846022338867187	0.0790577621459961	0		-0.7265972900390625	-2.547089599609375	0		1.4954801025390625	-0.7958052978515625	0		3.240631103515625	-0.1587421875	0		4.5489072265625	-0.02859693145751953	0		5.58478759765625	0.10151817321777344	0		-0.11864969635009766	5.94631982421875	0		
